<svg xmlns="http://www.w3.org/2000/svg" xmlns:xlink="http://www.w3.org/1999/xlink" width="24" height="24" viewBox="0 0 24 24"><defs><style>.a{fill:none;}.b{clip-path:url(#a);}.c,.d{fill:#333;}.c{opacity:0;}</style><clipPath id="a"><rect class="a" width="24" height="24"/></clipPath></defs><g class="b"><rect class="c" width="24" height="24"/><path class="d" d="M225.874,9.777,234.728,1.4a.838.838,0,0,0,0-1.157.777.777,0,0,0-1.119,0l-9.424,8.915a.824.824,0,0,0-.224.62.828.828,0,0,0,.224.627l9.423,8.915a.776.776,0,0,0,1.119,0,.838.838,0,0,0,0-1.157l-8.853-8.385" transform="translate(-216.96 1.995)"/></g></svg>