<svg xmlns="http://www.w3.org/2000/svg" width="16" height="10.286" viewBox="0 0 16 10.286"><defs><style>.a{}</style></defs><path class="a" d="M-17.143-15.429a8.777,8.777,0,0,0-3.4-3.152A3.9,3.9,0,0,1-20-16.571a3.852,3.852,0,0,1-1.174,2.826A3.852,3.852,0,0,1-24-12.571a3.852,3.852,0,0,1-2.826-1.174A3.852,3.852,0,0,1-28-16.571a3.9,3.9,0,0,1,.545-2.009,8.777,8.777,0,0,0-3.4,3.152,9.216,9.216,0,0,0,2.978,2.915A7.351,7.351,0,0,0-24-11.429a7.351,7.351,0,0,0,3.879-1.085A9.216,9.216,0,0,0-17.143-15.429Zm.964-.616a1.236,1.236,0,0,1,.179.616,1.236,1.236,0,0,1-.179.616,9.472,9.472,0,0,1-3.362,3.29A8.69,8.69,0,0,1-24-10.286a8.667,8.667,0,0,1-4.46-1.241,9.534,9.534,0,0,1-3.362-3.286A1.236,1.236,0,0,1-32-15.429a1.236,1.236,0,0,1,.179-.616A9.534,9.534,0,0,1-28.46-19.33,8.667,8.667,0,0,1-24-20.571a8.667,8.667,0,0,1,4.46,1.241A9.534,9.534,0,0,1-16.179-16.045Z" transform="translate(32 20.571)"/></svg>